<?xml version="1.0" encoding="UTF-8"?>
<svg version="1.1" xmlns="http://www.w3.org/2000/svg" width="113" height="113">
<path d="M0 0 C3.9388991 2.83864796 7.39950516 6.04337071 10.72265625 9.57421875 C9.36678271 13.64183936 6.77419685 14.43756127 3.16015625 16.26171875 C2.54462891 16.58205078 1.92910156 16.90238281 1.29492188 17.23242188 C-0.22469925 18.02168246 -1.75046186 18.7990979 -3.27734375 19.57421875 C-3.78523438 19.16429688 -4.293125 18.754375 -4.81640625 18.33203125 C-11.0680205 13.43844556 -16.10692798 10.75717717 -24.27734375 11.57421875 C-31.32199074 13.44457812 -36.40505298 16.28174625 -40.27734375 22.57421875 C-43.17775649 28.61507839 -43.44748499 35.5186156 -41.58984375 41.95703125 C-38.82788706 48.01031965 -34.4700537 51.82554786 -28.33984375 54.38671875 C-21.45723477 56.67221509 -15.64376198 55.75742786 -9.27734375 52.57421875 C-6.82896615 51.01616028 -4.58027937 49.34939829 -2.27734375 47.57421875 C4.15765625 51.53421875 4.15765625 51.53421875 10.72265625 55.57421875 C6.65004434 63.71944258 -0.77726955 68.6975206 -9.27734375 71.57421875 C-19.03479214 74.67315086 -30.30696917 73.08752634 -39.27734375 68.57421875 C-48.96742741 63.44875649 -54.72028486 56.12604501 -58.55078125 45.93359375 C-62.08003121 34.4730186 -60.30525976 23.6667795 -54.9921875 12.9921875 C-49.34998265 3.76663249 -40.61072353 -1.76124565 -30.45703125 -5.0078125 C-19.8587619 -7.04009712 -9.17970947 -5.74715944 0 0 Z " fill="#962A75" transform="translate(72.27734375,24.42578125)"/>
<path d="M0 0 C0 15.84 0 31.68 0 48 C-3.61963223 46.55214711 -6.68190323 45.14796699 -10.02734375 43.2421875 C-10.97859131 42.70231201 -11.92983887 42.16243652 -12.90991211 41.60620117 C-13.90901611 41.03490479 -14.90812012 40.4636084 -15.9375 39.875 C-16.9591626 39.29403564 -17.9808252 38.71307129 -19.03344727 38.11450195 C-22.02413199 36.41286068 -25.01236979 34.70699711 -28 33 C-29.54160123 32.12097898 -31.08326017 31.24205916 -32.625 30.36328125 C-35.75226079 28.57945637 -38.87710935 26.7914676 -42 25 C-42 24.34 -42 23.68 -42 23 C-40.95585938 22.42894531 -39.91171875 21.85789062 -38.8359375 21.26953125 C-28.79767839 15.7489509 -18.89521427 10.03813733 -9.08740234 4.11645508 C-8.19230957 3.58044678 -7.2972168 3.04443848 -6.375 2.4921875 C-5.57835937 2.01120605 -4.78171875 1.53022461 -3.9609375 1.03466797 C-2 0 -2 0 0 0 Z " fill="#E82D63" transform="translate(99,34)"/>
</svg>
