<svg width="133" height="34" viewBox="0 0 133 34" fill="none" xmlns="http://www.w3.org/2000/svg">
<path d="M108.97 11.8867C108.97 10.5435 108.091 9.68872 106.606 9.56662C106.152 9.53609 105.667 9.56661 105.212 9.6582C104.273 9.87189 103.758 10.5435 103.455 11.4288C103.061 12.5583 102.697 13.7183 102.303 14.8478C101.394 17.5648 100.485 20.2817 99.5758 23.0292C99.5455 23.0902 99.5152 23.1818 99.4545 23.3344C99.3939 23.1818 99.3636 23.0902 99.3333 23.0292C98.4242 20.3122 97.5151 17.5953 96.606 14.8478C96.2121 13.7183 95.8485 12.5583 95.4545 11.4288C95.1515 10.5435 94.6364 9.87189 93.697 9.6582C93.2424 9.56661 92.7576 9.50556 92.303 9.56662C90.8182 9.68872 89.9394 10.5435 89.9394 11.8867C89.9394 16.8932 89.9394 21.8996 89.9394 26.8756C89.9394 27.1198 90.0303 27.1503 90.2424 27.1503C91.0303 27.1503 91.8182 27.1503 92.6061 27.1503C93 27.1503 93 27.1503 93 26.7535C93 22.3881 93 13.352 93 13.2299C93.0303 13.2299 93.0606 13.2299 93.0606 13.2299C93.0909 13.3215 95.8788 21.3501 97.2727 25.2882C97.4242 25.685 97.606 26.0819 97.8182 26.4482C98.1212 26.9366 98.7879 27.2114 99.4545 27.2114C100.121 27.2114 100.788 26.9366 101.091 26.4482C101.303 26.0819 101.515 25.685 101.636 25.2882C103 21.3501 105.818 13.3215 105.848 13.2299C105.879 13.2299 105.909 13.2299 105.909 13.2299C105.909 13.352 105.909 22.3881 105.909 26.7535C105.909 27.1503 105.909 27.1503 106.303 27.1503C107.091 27.1503 107.879 27.1503 108.667 27.1503C108.879 27.1503 108.97 27.1198 108.97 26.8756C108.97 21.8996 108.97 16.8932 108.97 11.8867Z" fill="white"/>
<path d="M132.97 23.0597C132.97 23.5786 132.909 24.1281 132.788 24.6471C132.485 25.8987 131.636 26.6619 130.394 26.9366C129.909 27.0588 129.394 27.1503 128.879 27.1503C126.697 27.1503 124.485 27.1503 122.303 27.1198C121.788 27.1198 121.242 26.9672 120.727 26.784C119.455 26.3261 118.879 25.3187 118.758 24.006C118.727 23.7618 118.727 23.5176 118.727 23.2734C118.727 19.9764 118.727 16.6489 118.758 13.352C118.758 12.8941 118.848 12.4057 118.97 11.9783C119.273 10.9098 120.03 10.2382 121.091 9.994C121.727 9.84136 122.424 9.74978 123.061 9.74978C124.909 9.71925 126.727 9.71925 128.576 9.74978C129.182 9.74978 129.788 9.81083 130.364 9.93294C131.879 10.2382 132.727 11.1846 132.879 12.7109C132.939 13.1383 132.939 13.5352 132.939 13.9625C133 15.4584 133 21.5333 132.97 23.0597ZM122.091 22.5712C122.091 22.8155 122.091 23.0292 122.121 23.2734C122.182 24.006 122.485 24.3418 123.182 24.4639C123.455 24.525 123.758 24.525 124.061 24.525C125.242 24.525 126.424 24.525 127.636 24.525C127.909 24.525 128.182 24.525 128.455 24.4945C129.152 24.4334 129.455 24.1281 129.545 23.4565C129.576 23.2428 129.576 23.0292 129.576 22.8155C129.576 19.9764 129.576 17.1069 129.576 14.2678C129.576 14.0541 129.576 13.8099 129.545 13.5962C129.455 12.8025 129.121 12.4972 128.333 12.4362C128.242 12.4362 125.061 12.4057 123.545 12.4362C122.394 12.4667 122.091 12.772 122.091 13.932C122.091 15.4279 122.091 21.167 122.091 22.5712Z" fill="white"/>
<path d="M72.8485 9.74978C74 9.74978 75.0606 9.74978 76.2121 9.74978C76.2121 9.90241 76.2121 18.4195 76.2121 22.5407C76.2121 22.7849 76.2121 22.9986 76.2424 23.2428C76.3333 24.0671 76.7273 24.4334 77.5454 24.4945C77.9697 24.525 80.8788 24.525 81.9394 24.4945C82.1212 24.4945 82.2727 24.4639 82.4545 24.4334C83.0606 24.3113 83.3333 24.006 83.3939 23.3955C83.4242 23.0902 83.4242 22.8155 83.4242 22.5102C83.4242 18.389 83.4242 9.90241 83.4242 9.71925C84.5454 9.71925 86.7879 9.71925 86.7879 9.71925C86.7879 9.71925 86.7879 18.7248 86.7879 23.0597C86.7879 23.6092 86.7273 24.1587 86.606 24.6776C86.303 25.9292 85.4242 26.6314 84.2424 26.9061C83.7576 27.0282 83.2121 27.1198 82.697 27.1198C80.606 27.1198 78.5454 27.1198 76.4545 27.0893C75.9394 27.0893 75.3939 26.9366 74.8788 26.7535C73.6667 26.3261 73.0909 25.3798 72.9394 24.1281C72.8788 23.7618 72.8788 23.426 72.8788 23.0597C72.8485 18.7553 72.8485 9.90241 72.8485 9.74978Z" fill="white"/>
<path d="M56.5757 9.74978C56.5757 9.74978 56.5757 10.0245 56.5757 10.1161C56.5757 10.7267 56.5757 11.3677 56.5757 11.9783C56.5757 12.4057 56.5757 12.4057 56.1515 12.4057C53.8788 12.4057 51.606 12.4057 49.3333 12.4057C49.0303 12.4057 48.7273 12.4057 48.4242 12.4667C47.7273 12.5888 47.4242 12.9246 47.3636 13.6267C47.3333 13.8404 47.3333 14.0541 47.3333 14.2678C47.3333 17.0763 47.3333 19.8543 47.3333 22.6628C47.3333 22.846 47.3333 22.9986 47.3636 23.1818C47.4242 24.006 47.8182 24.4029 48.606 24.4945C48.9091 24.525 49.1818 24.525 49.4848 24.525C51.697 24.525 56.3939 24.525 56.5757 24.525C56.5757 25.1966 56.5757 25.8377 56.5757 26.4787C56.5757 27.1503 56.5757 27.1503 55.9091 27.1503C53.4848 27.1503 51.0303 27.1809 48.606 27.1503C47.8485 27.1503 47.0909 27.0588 46.3939 26.8756C44.9394 26.4787 44.1818 25.5019 44.0303 24.006C44 23.7008 43.9697 23.365 43.9697 23.0597C43.9697 20.0069 43.9697 16.9542 43.9697 13.9015C43.9697 13.3825 44.0303 12.8636 44.1212 12.3446C44.3636 11.093 45.1212 10.2687 46.3333 9.994C46.9697 9.84136 47.6364 9.74978 48.2727 9.74978C50.9394 9.71925 56.5757 9.74978 56.5757 9.74978Z" fill="white"/>
<path d="M59.1515 9.74978C60.303 9.74978 61.3636 9.74978 62.5151 9.74978C62.5151 9.90241 62.5151 18.3279 62.5151 22.4186C62.5151 22.7239 62.5151 22.9986 62.5757 23.3039C62.697 24.0671 63.0909 24.4029 63.8485 24.4945C64.2121 24.525 64.606 24.5555 64.9697 24.5555C66.8485 24.5555 70.8182 24.5555 70.9697 24.5555C70.9697 24.8913 70.9697 26.4177 70.9697 26.9061C70.9697 27.0893 70.9394 27.1809 70.7273 27.1809C68.0909 27.1503 65.4545 27.1503 62.8182 27.1198C62.3939 27.1198 61.9394 26.9977 61.5454 26.8756C60.1515 26.4787 59.4545 25.4713 59.2727 24.0976C59.2121 23.7008 59.2121 23.3039 59.2121 22.907C59.1515 18.6332 59.1515 9.90241 59.1515 9.74978Z" fill="white"/>
<path d="M112.212 9.74978C113.333 9.74978 114.424 9.74978 115.515 9.74978C115.515 15.55 115.515 21.3502 115.515 27.1503C114.424 27.1503 113.333 27.1503 112.212 27.1503C112.212 21.3502 112.212 15.5805 112.212 9.74978Z" fill="white"/>
<path d="M14.5454 2.85061C16.606 3.15588 18.606 4.56014 20.0606 5.84228C21.5151 7.15496 22.5757 8.74238 23.2121 10.5435C23.2121 10.574 23.2424 10.6046 23.2424 10.6352C23.2424 10.6657 23.2727 10.6961 23.2727 10.7267C23.4242 11.2151 23.5757 11.7035 23.6667 12.192C23.697 12.3141 23.7273 12.4667 23.7576 12.5888C24.0606 14.3899 23.9091 16.2826 23.3636 18.0837C22.8485 19.7627 21.9394 21.3501 20.6363 22.7239C19.3636 24.0671 17.9697 24.8608 16.3333 25.4713C18.6363 26.3871 21.2424 26.5703 23.8485 25.7766C25.3636 25.3187 26.9394 24.4029 28.0909 23.4565C31.303 20.8312 32.9697 15.9773 31.8788 11.7646C31.2121 9.29187 29.7576 7.00232 27.8788 5.10963C27.7879 5.04857 27.7273 4.95699 27.6363 4.89594C27.5454 4.80436 27.4848 4.7433 27.3939 4.68225C20.8485 -1.39268 10.6363 -0.629501 4.69695 5.56754C7.09089 3.4001 10.3636 2.20954 14.5454 2.85061Z" fill="url(#paint0_linear_3562_46)"/>
<path d="M23.303 10.7572C23.303 10.7266 23.2727 10.6962 23.2727 10.6656C23.2727 10.6962 23.2727 10.7266 23.303 10.7572Z" fill="url(#paint1_linear_3562_46)"/>
<path d="M23.303 10.7572C23.303 10.7266 23.2727 10.6962 23.2727 10.6656C23.2727 10.6962 23.2727 10.7266 23.303 10.7572Z" fill="url(#paint2_linear_3562_46)"/>
<path d="M23.697 12.2225C23.7273 12.3446 23.7576 12.4972 23.7576 12.6193C23.7273 12.4667 23.697 12.3446 23.697 12.2225Z" fill="url(#paint3_linear_3562_46)"/>
<path d="M23.697 12.2225C23.7273 12.3446 23.7576 12.4972 23.7576 12.6193C23.7273 12.4667 23.697 12.3446 23.697 12.2225Z" fill="url(#paint4_linear_3562_46)"/>
<path d="M16.2121 3.55274C17.606 4.10223 19.1818 5.01805 20.303 6.11703C21.6667 7.39918 22.6363 8.92554 23.2121 10.5435C22.5757 8.74238 21.5151 7.15496 20.0606 5.84228C18.606 4.56014 16.606 3.15588 14.5454 2.85061C10.3636 2.20954 7.09089 3.4001 4.69695 5.56754C4.30301 5.96439 3.93938 6.39178 3.60605 6.84968C6.54544 3.12536 12.0606 1.93479 16.2121 3.55274Z" fill="url(#paint5_linear_3562_46)"/>
<path d="M23.697 12.2225C23.606 11.7341 23.4545 11.2456 23.303 10.7572C23.303 10.7266 23.2727 10.6962 23.2727 10.6656C23.2727 10.6351 23.2424 10.6045 23.2424 10.574C22.5757 8.74238 21.5151 7.15496 20.0606 5.84228C18.606 4.56014 16.606 3.15588 14.5454 2.85061C10.3636 2.20954 7.09089 3.4001 4.69695 5.56754C2.57574 7.49076 1.1515 10.1772 0.45453 13.1078C0.424227 13.1994 0.393924 13.3215 0.393924 13.4131C0.363621 13.5046 0.333318 13.6267 0.303015 13.7183C-1.36365 22.1439 3.96968 30.1725 11.6667 32.5537C8.90908 31.3936 6.57574 29.1346 5.21211 25.4408C4.48483 23.4871 4.57574 21.3807 4.96968 19.488C5.54544 16.8626 7.06059 14.2678 9.1515 12.6193C10.4848 11.5204 12.0909 10.7267 13.8182 10.2993C15.5151 9.87189 17.3333 9.84136 19.1515 10.2382C20.9697 10.6351 22.3636 11.5204 23.7273 12.6193C23.7273 12.4667 23.697 12.3446 23.697 12.2225Z" fill="url(#paint6_linear_3562_46)"/>
<path d="M28.0909 23.4565C26.9394 24.4029 25.3636 25.3187 23.8485 25.7766C21.2424 26.5703 18.6363 26.3871 16.3333 25.4713C16.303 25.4713 16.303 25.4713 16.2727 25.5019C18.7576 26.4787 21.7273 26.5703 24.2727 25.7461C26.1212 25.1661 27.9697 24.1892 29.303 22.5712C32.2727 18.969 32.8182 15.1836 31.8788 11.7646C32.9697 16.0079 31.303 20.8312 28.0909 23.4565Z" fill="url(#paint7_linear_3562_46)"/>
<path d="M14.4545 33.1337C14.5455 33.1337 14.6062 33.1642 14.6972 33.1642C14.6062 33.1642 14.5152 33.1642 14.4545 33.1337Z" fill="url(#paint8_linear_3562_46)"/>
<path d="M14.4545 33.1337C14.5455 33.1337 14.6062 33.1642 14.6972 33.1642C14.6062 33.1642 14.5152 33.1642 14.4545 33.1337Z" fill="url(#paint9_linear_3562_46)"/>
<path d="M31.5757 10.8488C31.697 11.154 31.7879 11.4593 31.8788 11.7951C32.9697 16.0079 31.303 20.8617 28.0909 23.4871C26.9394 24.4334 25.3636 25.3492 23.8485 25.8071C21.2424 26.6008 18.6364 26.4177 16.3333 25.5019C14.7273 24.8608 13.2424 23.8229 12.0303 22.5102C10.8485 21.228 9.93938 19.6406 9.39392 17.8395C8.84847 16.0384 8.87877 14.3899 9.1515 12.6499C7.06059 14.2983 5.54544 16.8932 4.96968 19.5185C4.54544 21.4417 4.48483 23.5176 5.21211 25.4713C6.57574 29.1651 8.93938 31.4242 11.6667 32.5842C14.5151 33.7748 17.8182 33.7748 20.9394 32.92C21.0303 32.8895 21.1515 32.8589 21.2424 32.8284C21.3333 32.7979 21.4545 32.7674 21.5454 32.7368C30.606 29.8062 34.7273 19.2132 31.5757 10.8488Z" fill="url(#paint10_linear_3562_46)"/>
<defs>
<linearGradient id="paint0_linear_3562_46" x1="47.7537" y1="5.99624" x2="56.4588" y2="50.4349" gradientUnits="userSpaceOnUse">
<stop stop-color="#4FC3F7"/>
<stop offset="0.0409952" stop-color="#49BCF5"/>
<stop offset="0.2088" stop-color="#36A5EE"/>
<stop offset="0.3894" stop-color="#2995E9"/>
<stop offset="0.5902" stop-color="#218BE6"/>
<stop offset="0.8515" stop-color="#1E88E5"/>
</linearGradient>
<linearGradient id="paint1_linear_3562_46" x1="-25640.6" y1="-2878.05" x2="-24854.9" y2="10061.5" gradientUnits="userSpaceOnUse">
<stop stop-color="#4FC3F7"/>
<stop offset="0.0409952" stop-color="#49BCF5"/>
<stop offset="0.2088" stop-color="#36A5EE"/>
<stop offset="0.3894" stop-color="#2995E9"/>
<stop offset="0.5902" stop-color="#218BE6"/>
<stop offset="0.8515" stop-color="#1E88E5"/>
</linearGradient>
<linearGradient id="paint2_linear_3562_46" x1="-27806.2" y1="7463.7" x2="-27502.6" y2="-4417.63" gradientUnits="userSpaceOnUse">
<stop offset="0.0529292" stop-color="#092E8C"/>
<stop offset="0.1955" stop-color="#205FAF"/>
<stop offset="0.3411" stop-color="#348ACE"/>
<stop offset="0.4725" stop-color="#43A9E4"/>
<stop offset="0.5834" stop-color="#4CBCF2"/>
<stop offset="0.6606" stop-color="#4FC3F7"/>
</linearGradient>
<linearGradient id="paint3_linear_3562_46" x1="-14890.5" y1="-761.401" x2="-14806.6" y2="2233.31" gradientUnits="userSpaceOnUse">
<stop stop-color="#4FC3F7"/>
<stop offset="0.0409952" stop-color="#49BCF5"/>
<stop offset="0.2088" stop-color="#36A5EE"/>
<stop offset="0.3894" stop-color="#2995E9"/>
<stop offset="0.5902" stop-color="#218BE6"/>
<stop offset="0.8515" stop-color="#1E88E5"/>
</linearGradient>
<linearGradient id="paint4_linear_3562_46" x1="-12881.1" y1="1616.27" x2="-12848.8" y2="-1126.99" gradientUnits="userSpaceOnUse">
<stop offset="0.0529292" stop-color="#092E8C"/>
<stop offset="0.1955" stop-color="#205FAF"/>
<stop offset="0.3411" stop-color="#348ACE"/>
<stop offset="0.4725" stop-color="#43A9E4"/>
<stop offset="0.5834" stop-color="#4CBCF2"/>
<stop offset="0.6606" stop-color="#4FC3F7"/>
</linearGradient>
<linearGradient id="paint5_linear_3562_46" x1="58.0653" y1="16.8537" x2="115.26" y2="141.901" gradientUnits="userSpaceOnUse">
<stop stop-color="#4FC3F7"/>
<stop offset="0.0409952" stop-color="#49BCF5"/>
<stop offset="0.2088" stop-color="#36A5EE"/>
<stop offset="0.3894" stop-color="#2995E9"/>
<stop offset="0.5902" stop-color="#218BE6"/>
<stop offset="0.8515" stop-color="#1E88E5"/>
</linearGradient>
<linearGradient id="paint6_linear_3562_46" x1="-94.8572" y1="116.372" x2="-85.6973" y2="-32.9333" gradientUnits="userSpaceOnUse">
<stop offset="0.6402" stop-color="#092E8C"/>
<stop offset="0.6769" stop-color="#205FAF"/>
<stop offset="0.7145" stop-color="#348ACE"/>
<stop offset="0.7483" stop-color="#43A9E4"/>
<stop offset="0.777" stop-color="#4CBCF2"/>
<stop offset="0.7969" stop-color="#4FC3F7"/>
</linearGradient>
<linearGradient id="paint7_linear_3562_46" x1="-17.2118" y1="-14.7003" x2="-1.31855" y2="63.8835" gradientUnits="userSpaceOnUse">
<stop stop-color="#4FC3F7"/>
<stop offset="0.0409952" stop-color="#49BCF5"/>
<stop offset="0.2088" stop-color="#36A5EE"/>
<stop offset="0.3894" stop-color="#2995E9"/>
<stop offset="0.5902" stop-color="#218BE6"/>
<stop offset="0.8515" stop-color="#1E88E5"/>
</linearGradient>
<linearGradient id="paint8_linear_3562_46" x1="450.859" y1="-2472.92" x2="16347.6" y2="-28389.4" gradientUnits="userSpaceOnUse">
<stop offset="0.0529292" stop-color="#092E8C"/>
<stop offset="0.1955" stop-color="#205FAF"/>
<stop offset="0.3411" stop-color="#348ACE"/>
<stop offset="0.4725" stop-color="#43A9E4"/>
<stop offset="0.5834" stop-color="#4CBCF2"/>
<stop offset="0.6606" stop-color="#4FC3F7"/>
</linearGradient>
<linearGradient id="paint9_linear_3562_46" x1="-5375.08" y1="27.4814" x2="9974.17" y2="27.4814" gradientUnits="userSpaceOnUse">
<stop offset="0.0584077" stop-color="#092E8C"/>
<stop offset="1" stop-color="#1E88E5"/>
</linearGradient>
<linearGradient id="paint10_linear_3562_46" x1="4.65663" y1="22.1663" x2="84.5978" y2="22.1663" gradientUnits="userSpaceOnUse">
<stop offset="0.0584077" stop-color="#092E8C"/>
<stop offset="0.3785" stop-color="#1E88E5"/>
</linearGradient>
</defs>
</svg>
